<?xml version="1.0" encoding="UTF-8"?>
<svg id="Layer_1" data-name="Layer 1" xmlns="http://www.w3.org/2000/svg" viewBox="0 0 483.73 431.4">
  <defs>
    <style>
      .cls-1 {
        fill: #242424;
        stroke: #414042;
        stroke-miterlimit: 10;
      }
    </style>
  </defs>
  <g>
    <polygon class="cls-1" points="174.96 162.99 141.02 182.6 139.19 183.67 105.68 164.3 105.68 161.68 103.39 162.99 69.91 143.66 69.91 102.34 105.55 122.92 105.68 123.02 139.19 142.35 141.02 143.42 174.96 162.99"/>
    <polygon class="cls-1" points="315.45 81.88 281.96 101.21 279.68 102.55 246.19 83.22 246.19 80.57 243.91 81.88 210.42 62.54 210.42 21.26 246.04 41.81 246.19 41.9 279.68 61.23 281.96 62.54 315.45 81.88"/>
    <polygon class="cls-1" points="36.27 287.04 36.27 325.16 35.69 325.5 .5 305.19 .5 266.37 33.49 285.43 33.53 285.43 36.27 287.04"/>
    <polygon class="cls-1" points="386.41 81.7 351.37 101.91 350.76 102.28 317.73 121.34 314.99 122.92 281.96 142.01 281.35 142.35 246.19 162.66 245.58 162.99 210.42 183.3 210.27 183.39 176.79 202.73 174.5 204.04 141.02 223.37 140.87 223.46 105.68 243.77 105.1 244.11 69.91 264.42 69.33 264.75 69.3 264.75 36.27 283.84 33.53 285.43 33.49 285.43 .5 266.37 .5 263.72 34.01 244.38 36.27 245.69 36.27 243.07 69.78 223.74 69.91 223.8 69.91 223.65 105.55 203.06 105.68 203.15 105.68 203 139.19 183.67 141.02 184.74 141.02 182.6 174.96 162.99 176.79 164.06 176.79 161.96 174.96 162.99 141.02 143.42 141.02 141.28 139.19 142.35 105.68 123.02 105.68 122.86 105.55 122.92 69.91 102.34 69.91 102.19 105.1 81.88 105.68 82.21 140.87 102.55 141.02 102.61 174.5 121.95 176.79 123.29 210.27 142.62 210.42 142.68 210.42 142.53 246.04 121.95 246.19 122.04 246.19 121.86 279.68 102.55 281.96 103.86 281.96 101.21 315.45 81.88 317.73 83.19 317.73 80.57 315.45 81.88 281.96 62.54 281.96 59.89 279.68 61.23 246.19 41.9 246.19 41.72 246.04 41.81 210.42 21.26 210.42 21.07 245.89 .58 246.19 .76 281.69 21.26 281.96 21.41 315.29 40.65 317.73 42.05 351.09 61.33 351.37 61.48 386.41 81.7"/>
    <polygon class="cls-1" points="387.14 82.12 387.14 122.59 386.56 122.92 351.37 143.23 350.76 143.6 317.73 162.66 317.15 162.99 281.96 183.3 281.35 183.67 246.19 203.98 246.04 204.04 210.42 224.62 210.27 224.71 176.79 244.05 176.64 244.11 141.02 264.69 140.87 264.78 105.68 285.09 105.1 285.43 69.91 305.74 69.3 306.1 36.27 325.16 36.27 283.84 69.3 264.75 69.33 264.75 69.91 265.12 69.91 264.42 105.1 244.11 105.68 244.44 105.68 243.77 140.87 223.46 141.02 223.56 141.02 223.37 174.5 204.04 176.79 205.38 176.79 202.73 210.27 183.39 210.42 183.49 210.42 183.3 245.58 162.99 246.19 163.36 246.19 162.66 281.35 142.35 281.96 142.68 281.96 142.01 314.99 122.92 317.73 124.51 317.73 121.34 350.76 102.28 351.37 102.61 351.37 101.91 386.41 81.7 387.14 82.12"/>
  </g>
  <g>
    <polygon class="cls-1" points="61.25 389.83 61.25 430.45 60.67 430.81 25.48 410.47 25.48 369.18 60.67 389.49 61.25 389.83"/>
    <g>
      <polygon class="cls-1" points="342.71 350.73 342.71 389.4 342.59 389.49 306.94 410.08 306.94 368.76 340.43 349.42 342.71 350.73"/>
      <polygon class="cls-1" points="342.71 227.32 342.71 267.94 342.1 268.31 306.94 288.62 306.82 288.68 306.79 288.68 273.31 308.04 271.02 309.35 237.54 290.02 237.54 287.37 271.02 268.03 273.31 269.34 273.31 266.72 306.33 247.66 306.94 248 306.94 247.3 342.13 226.99 342.71 227.32"/>
      <polygon class="cls-1" points="480.92 268.31 447.46 287.61 447.31 287.7 413.83 268.4 413.83 268.25 413.71 268.31 378.06 247.72 378.06 247.54 377.9 247.63 342.71 227.32 342.71 226.65 342.13 226.99 306.94 247.3 306.33 247.66 273.31 266.72 271.02 268.03 237.54 287.37 235.25 288.71 237.54 290.02 271.02 309.35 273.31 310.66 306.82 330.03 306.94 330.09 340.43 349.42 306.94 368.76 306.79 368.85 273.31 349.48 273.31 349.36 273.22 349.42 273.19 349.42 237.54 328.84 237.54 328.69 237.39 328.78 201.77 308.19 201.77 308.04 201.62 308.1 166 328.69 165.85 328.78 132.36 348.11 130.08 349.42 96.59 368.76 94.28 370.1 61.25 389.16 60.67 389.49 25.48 369.18 25.48 368.48 58.51 349.42 61.25 351.04 61.25 347.84 94.28 328.78 94.31 328.78 96.59 330.09 96.59 327.44 130.08 308.1 132.36 309.44 132.36 306.79 165.85 287.46 166 287.55 166 287.37 199.48 268.03 201.77 269.37 201.77 266.72 235.25 247.39 237.54 248.7 237.54 246.08 270.56 226.99 273.31 228.57 273.31 225.4 306.33 206.34 306.94 206.68 306.94 205.98 339.97 186.92 342.71 188.5 375.74 207.59 378.06 208.9 411.51 228.24 413.83 229.58 447.31 248.91 447.46 248.97 480.92 268.31"/>
      <polygon class="cls-1" points="306.94 368.91 306.94 410.08 306.79 410.14 273.31 390.8 273.31 388.18 271.02 389.49 237.54 370.16 237.54 370.04 237.42 370.1 201.77 349.51 201.77 308.19 237.39 328.78 237.54 328.84 273.19 349.42 273.22 349.42 273.31 349.48 306.79 368.85 306.94 368.91"/>
      <polygon class="cls-1" points="201.77 308.19 201.77 349.33 201.62 349.42 166 369.98 165.85 370.07 132.36 389.4 130.05 390.74 96.59 410.05 96.44 410.14 61.25 430.45 61.25 389.16 94.28 370.1 96.59 371.44 96.59 368.76 130.08 349.42 132.36 350.73 132.36 348.11 165.85 328.78 166 328.87 166 328.69 201.62 308.1 201.77 308.19"/>
      <polygon class="cls-1" points="483.23 269.65 483.23 308.29 483.08 308.38 447.46 328.93 447.46 287.61 480.92 268.31 483.23 269.65"/>
      <polygon class="cls-1" points="447.46 287.82 447.46 328.93 447.31 329.02 413.83 309.72 413.83 307.04 411.51 308.38 378.06 289.04 378.06 288.89 377.94 288.98 342.71 268.64 342.71 227.32 377.9 247.63 378.06 247.72 413.71 268.31 413.83 268.4 447.31 287.7 447.46 287.82"/>
    </g>
  </g>
</svg>